<?xml version="1.0" encoding="UTF-8" standalone="no"?><!DOCTYPE svg PUBLIC "-//W3C//DTD SVG 1.1//EN" "http://www.w3.org/Graphics/SVG/1.1/DTD/svg11.dtd"><svg width="100%" height="100%" viewBox="0 0 278 260" version="1.1" xmlns="http://www.w3.org/2000/svg" xmlns:xlink="http://www.w3.org/1999/xlink" xml:space="preserve" xmlns:serif="http://www.serif.com/" style="fill-rule:evenodd;clip-rule:evenodd;stroke-linejoin:round;stroke-miterlimit:2;"><path d="M146.178,259.529l0,0.002l-146.178,-0l0,-259.531c13.146,-0 25.753,5.222 35.048,14.517c9.295,9.295 14.517,21.902 14.517,35.048l0,160.401l96.613,-0c43.257,-0 78.376,-35.119 78.376,-78.376c-0,-43.257 -35.119,-78.375 -78.376,-78.375l0,81.859c0,29.389 -23.825,53.214 -53.214,53.214l-0,-188.288l53.214,0c72.627,0 131.59,58.964 131.59,131.59c0,72.627 -58.268,127.941 -130.895,127.941c-0.232,-0 -0.463,-0.001 -0.695,-0.002Z"/></svg>